%
M48
M72
T01C0.0276
T02C0.0354
T03C0.0472
T04C0.0512
T05C0.0591
%
T01
X6366Y24868
X8334Y24868
X5350Y28884
X5350Y30853
X29850Y18868
X29850Y17868
X29850Y16868
X29850Y15868
X29850Y14868
X29850Y13868
X29850Y12868
X32850Y12868
X32850Y13868
X32850Y14868
X32850Y15868
X32850Y16868
X32850Y17868
X32850Y18868
T02
X7350Y16368
X11350Y16368
X10350Y20868
X10350Y24868
X10350Y27868
X6350Y27868
X16850Y26368
X16850Y22368
X16850Y20368
X16850Y16368
X22350Y14868
X22350Y18868
X22350Y22368
X22350Y26368
X28350Y26368
X31350Y26368
X31350Y22368
X28350Y22368
X34850Y12368
X36850Y12368
X36850Y8368
X34850Y8368
T03
X25350Y15868
X34350Y19368
X10850Y30868
T04
X32381Y28864
X34350Y28864
X36319Y28864
X36850Y5368
X34850Y3868
T05
X24196Y5238
X19696Y5238
X19696Y10238
X24196Y10238
M30
