%
M48
M72
T01C0.0276
T02C0.0354
T03C0.0394
T04C0.0400
T05C0.0470
T06C0.0512
T07C0.0591
%
T01
X12276Y13868
X14244Y13868
X22760Y17868
X22760Y18868
X22760Y19868
X22760Y20868
X22760Y21868
X22760Y22868
X22760Y23868
X25760Y23868
X25760Y22868
X25760Y21868
X25760Y20868
X25760Y19868
X25760Y18868
X25760Y17868
X9244Y24368
X7276Y24368
X6776Y31368
X8744Y31368
T02
X14260Y8368
X16760Y8368
X16760Y12368
X14260Y12368
X12260Y15368
X12260Y19368
X7260Y18368
X7260Y22368
X6760Y25368
X6760Y29368
X12260Y27868
X12260Y31868
X15760Y31868
X19760Y31868
X18260Y27868
X20260Y26368
X22260Y27868
X24260Y26368
T03
X21260Y21868
X20260Y20868
X27760Y14868
X26760Y10368
X36260Y13868
X4760Y29368
T04
X25760Y8608
X24775Y7628
X25760Y6638
X26745Y7628
T05
X25760Y7628
X24775Y6638
X26745Y6638
T06
X25791Y31372
X27760Y31372
X29729Y31372
T07
X30106Y10238
X34606Y10238
X34606Y5238
X30106Y5238
M30
