%
M48
M72
T01C0.0276
T02C0.0354
T03C0.0512
%
T01
X13366Y13850
X15334Y13850
X15850Y22866
X15850Y24834
X13350Y25866
X13350Y27834
X6850Y27834
X6850Y25866
X30350Y16850
X30350Y15850
X30350Y14850
X30350Y13850
X30350Y12850
X30350Y11850
X30350Y10850
X33350Y10850
X33350Y11850
X33350Y12850
X33350Y13850
X33350Y14850
X33350Y15850
X33350Y16850
T02
X6850Y8850
X10850Y8850
X14350Y8350
X18350Y8350
X22350Y8350
X24850Y9350
X20350Y12850
X24850Y13350
X20350Y16850
X15850Y16850
X15850Y20850
X20350Y20850
X24350Y20850
X28850Y18850
X31350Y20850
X28850Y22850
X31350Y24850
X33850Y22850
X33850Y18850
X25850Y24850
X22850Y24850
X20350Y24850
X17850Y24850
X17850Y28850
X20350Y28850
X22850Y28850
X25850Y28850
X10850Y15350
X6850Y15350
X14350Y12350
T03
X12350Y20850
X27850Y15850
X35350Y14850
X36850Y12850
X36819Y28854
X34850Y28854
X32881Y28854
M30
