G75*
G70*
%OFA0B0*%
%FSLAX24Y24*%
%IPPOS*%
%LPD*%
%AMOC8*
5,1,8,0,0,1.08239X$1,22.5*
%
%ADD10C,0.0000*%
%ADD11C,0.0476*%
%ADD12C,0.0554*%
%ADD13C,0.0476*%
%ADD14R,0.0768X0.0768*%
%ADD15C,0.0768*%
%ADD16C,0.0500*%
D10*
X000350Y000350D02*
X000350Y031846D01*
X039720Y031846D01*
X039720Y000350D01*
X000350Y000350D01*
D11*
X030112Y010850D02*
X030588Y010850D01*
X030588Y011850D02*
X030112Y011850D01*
X030112Y012850D02*
X030588Y012850D01*
X030588Y013850D02*
X030112Y013850D01*
X030112Y014850D02*
X030588Y014850D01*
X030588Y015850D02*
X030112Y015850D01*
X030112Y016850D02*
X030588Y016850D01*
X033112Y016850D02*
X033588Y016850D01*
X033588Y015850D02*
X033112Y015850D01*
X033112Y014850D02*
X033588Y014850D01*
X033588Y013850D02*
X033112Y013850D01*
X033112Y012850D02*
X033588Y012850D01*
X033588Y011850D02*
X033112Y011850D01*
X033112Y010850D02*
X033588Y010850D01*
D12*
X024850Y009350D03*
X022350Y008350D03*
X018350Y008350D03*
X014350Y008350D03*
X010850Y008850D03*
X006850Y008850D03*
X014350Y012350D03*
X010850Y015350D03*
X006850Y015350D03*
X015850Y016850D03*
X020350Y016850D03*
X024850Y013350D03*
X020350Y012850D03*
X028850Y018850D03*
X031350Y020850D03*
X028850Y022850D03*
X031350Y024850D03*
X033850Y022850D03*
X033850Y018850D03*
X025850Y024850D03*
X022850Y024850D03*
X020350Y024850D03*
X017850Y024850D03*
X017850Y028850D03*
X020350Y028850D03*
X022850Y028850D03*
X025850Y028850D03*
X024350Y020850D03*
X020350Y020850D03*
X015850Y020850D03*
D13*
X015850Y022866D03*
X015850Y024834D03*
X013350Y025866D03*
X013350Y027834D03*
X006850Y027834D03*
X006850Y025866D03*
X013366Y013850D03*
X015334Y013850D03*
D14*
X036819Y028854D03*
D15*
X034850Y028854D03*
X032881Y028854D03*
X027850Y015850D03*
X035350Y014850D03*
X036850Y012850D03*
X012350Y020850D03*
D16*
X000350Y000350D02*
X039850Y000350D01*
X039850Y031850D01*
X000350Y031850D01*
X000350Y000350D01*
X005850Y006350D02*
X005850Y027850D01*
X006850Y028850D01*
X017850Y028850D01*
X020350Y028850D01*
X020350Y027350D01*
X022850Y024850D01*
X023850Y024850D02*
X023850Y022350D01*
X019350Y017850D01*
X019350Y014850D01*
X024350Y019850D01*
X024350Y020850D01*
X024350Y021850D02*
X023350Y020850D01*
X023350Y019850D01*
X020350Y016850D01*
X019350Y014850D02*
X019350Y013850D01*
X020350Y012850D01*
X018350Y011850D02*
X023850Y011850D01*
X023850Y012350D01*
X024850Y013350D01*
X025350Y013850D01*
X025350Y021850D01*
X026850Y023350D01*
X026850Y025850D01*
X031850Y025850D01*
X034850Y022850D01*
X034850Y017850D01*
X032850Y017850D01*
X032350Y017350D01*
X032350Y014850D01*
X030350Y014850D01*
X030350Y013850D02*
X027850Y013850D01*
X027850Y015850D01*
X026350Y016850D02*
X026350Y013850D01*
X023850Y010850D01*
X014850Y010850D01*
X013350Y012350D01*
X013350Y012850D01*
X010850Y015350D01*
X010850Y016350D02*
X009850Y016350D01*
X009850Y009850D01*
X010350Y009350D01*
X023350Y009350D01*
X026850Y012850D01*
X030350Y012850D01*
X030350Y011850D02*
X026850Y011850D01*
X026850Y011350D01*
X024850Y009350D01*
X024850Y008350D01*
X022350Y008350D01*
X018350Y008350D02*
X014350Y008350D01*
X010850Y008850D02*
X010350Y009350D01*
X008850Y007350D02*
X008850Y019350D01*
X014350Y013850D01*
X014350Y012350D01*
X013366Y013850D02*
X013350Y013850D01*
X010850Y016350D01*
X006850Y015350D02*
X006850Y008850D01*
X008850Y007350D02*
X026850Y007350D01*
X030350Y010850D01*
X033350Y010850D02*
X028850Y006350D01*
X005850Y006350D01*
X015334Y013850D02*
X015350Y013850D01*
X015850Y014350D01*
X018350Y011850D01*
X015850Y014350D02*
X015850Y016850D01*
X015850Y020850D02*
X012350Y020850D01*
X010850Y023350D02*
X010850Y023850D01*
X006850Y027850D01*
X006850Y027834D01*
X006850Y025866D02*
X006850Y015350D01*
X008850Y019350D02*
X008850Y021350D01*
X010850Y023350D01*
X013350Y025850D01*
X013350Y025866D01*
X013350Y027834D02*
X013350Y027850D01*
X015850Y025350D01*
X015850Y024850D01*
X015850Y024834D01*
X015850Y024850D02*
X017850Y024850D01*
X020350Y024850D02*
X020350Y020850D01*
X024350Y021850D02*
X025350Y021850D01*
X027850Y022850D02*
X032350Y018350D01*
X031350Y017350D01*
X031350Y015850D01*
X030350Y015850D01*
X030350Y016850D02*
X029850Y017350D01*
X029850Y016850D01*
X026350Y016850D01*
X028850Y018350D02*
X028850Y018850D01*
X028850Y018350D02*
X029850Y017350D01*
X032350Y018350D02*
X032850Y018850D01*
X033850Y018850D01*
X033350Y016850D02*
X035850Y016850D01*
X035850Y025850D01*
X032850Y028850D01*
X032881Y028854D01*
X031850Y028850D02*
X031850Y029350D01*
X032350Y029850D01*
X034850Y029850D01*
X034850Y028854D01*
X034850Y028850D01*
X036850Y026850D01*
X036850Y015850D01*
X033350Y015850D01*
X033350Y014850D02*
X032350Y014850D01*
X033350Y013850D02*
X035350Y013850D01*
X035350Y014850D01*
X036850Y012850D02*
X033350Y012850D01*
X033350Y011850D02*
X037850Y011850D01*
X037850Y029350D01*
X036350Y030850D01*
X021850Y030850D01*
X021850Y026850D01*
X023850Y024850D01*
X025850Y024850D02*
X025850Y025850D01*
X022850Y028850D01*
X025850Y028850D02*
X031850Y028850D01*
X031350Y024850D02*
X027850Y024850D01*
X027850Y022850D01*
X028850Y022850D02*
X033850Y022850D01*
X015850Y022866D02*
X015850Y020850D01*
M02*
